# xmcd CD database file
#
# Track frame offsets:
#	150
#	13234
#	30055
#	46322
#	59750
#	72977
#	83635
#	97360
#	108877
#	120157
#	131905
#	146550
#	161290
#
# Disc length: 2448 seconds
#
# Revision: 1
# Processed by: cddbd v1.4PL0 Copyright (c) Steve Scherf et al.
# Submitted via: CDex 1.50
#
DISCID=ab098e0d
DTITLE=Luther Wright and the Wrongs - Guitar Pickin' Martyrs
DYEAR=2003
DGENRE=Country
TTITLE0=Wish Me Well
TTITLE1=Devious Dissembler
TTITLE2=Land of Milk and Honey
TTITLE3=Race To The Top
TTITLE4=Broken Fuckin' Heart
TTITLE5=I'm Not Okay
TTITLE6=Not Feeling Fine
TTITLE7=My Heart, my heart
TTITLE8=Guitar Pickin' Martyrs
TTITLE9=Darlin'
TTITLE10=Letting Go
TTITLE11=It's Mighty Dark To Travel
TTITLE12=The Settling Dust
EXTD=YEAR: 2003
EXTT0=
EXTT1=
EXTT2=
EXTT3=
EXTT4=
EXTT5=
EXTT6=
EXTT7=
EXTT8=
EXTT9=
EXTT10=
EXTT11=
EXTT12=
PLAYORDER=
